<?xml version="1.0" encoding="UTF-8" standalone="no"?>
<!DOCTYPE svg PUBLIC "-//W3C//DTD SVG 1.1//EN" "http://www.w3.org/Graphics/SVG/1.1/DTD/svg11.dtd">
<svg width="100%" height="100%" viewBox="0 0 1250 1250" version="1.1" xmlns="http://www.w3.org/2000/svg" xmlns:xlink="http://www.w3.org/1999/xlink" xml:space="preserve" xmlns:serif="http://www.serif.com/" style="fill-rule:evenodd;clip-rule:evenodd;stroke-linejoin:round;stroke-miterlimit:2;">
    <g id="Página-1" serif:id="Página 1" transform="matrix(4.166667,0,0,4.166667,0,0)">
        <rect x="0" y="0" width="300" height="300" style="fill:none;"/>
        <g id="Layer-1" serif:id="Layer 1">
            <rect x="0" y="0" width="300" height="300" style="fill:rgb(91,69,156);"/>
            <g transform="matrix(1.314465,0,0,1.314465,82.134037,65.713164)">
                <path d="M0,127.795C10.386,134.867 22.35,139.666 35.155,141.664L5.705,149.431L0,127.795ZM-27.783,76.462C-30.523,66.069 -31.07,55.223 -29.495,44.66L-13.592,104.969C-20.163,96.564 -25.041,86.864 -27.783,76.462M28.531,-20.187C34.434,-21.745 40.495,-22.618 46.548,-22.781C59.799,-23.144 72.869,-20.153 84.678,-14.106L-17.297,12.785C-6.562,-3.531 9.597,-15.195 28.531,-20.187M125.177,36.125C127.962,46.682 128.51,57.479 126.931,67.975L111.032,7.675C117.587,16.073 122.444,25.759 125.177,36.125M-27.615,23.079L98.738,-10.243L98.836,-9.856L123.24,82.672C121.596,87.279 119.526,91.772 117.012,96.092C106.359,114.369 89.262,127.396 68.863,132.774C62.963,134.332 56.9,135.203 50.847,135.371C33.328,135.846 15.86,130.332 1.658,119.842C0.015,118.628 -1.571,117.344 -3.108,116.011L-27.615,23.079ZM132.057,116.108L102.526,123.899C110.781,117.308 117.847,109.191 123.33,99.778C124.393,97.951 125.361,96.091 126.283,94.214L132.057,116.108ZM70.784,139.839L140.998,121.324L130.876,82.937C135.996,67.294 136.545,50.516 132.258,34.258C127.875,17.64 118.931,3.311 107.006,-7.592L103.95,-19.187L94.949,-16.814C80.851,-25.725 64.083,-30.583 46.348,-30.1C39.736,-29.919 33.112,-28.967 26.662,-27.266C4.377,-21.389 -14.303,-7.158 -25.935,12.809C-26.442,13.68 -26.912,14.564 -27.387,15.446L-36.561,17.865L-33.466,29.601C-38.599,45.257 -39.157,62.054 -34.864,78.331C-30.476,94.967 -21.518,109.311 -9.57,120.219L0.493,158.378L70.689,139.865C70.704,139.861 70.719,139.858 70.733,139.854C70.75,139.851 70.767,139.845 70.784,139.839" style="fill:white;fill-rule:nonzero;"/>
            </g>
            <g transform="matrix(1.314465,0,0,1.314465,117.389687,96.985591)">
                <path d="M0,46.567C11.99,43.391 16.967,34.386 13.648,21.866L7.021,-3.147L-0.077,-1.266L6.654,24.13C8.819,32.302 5.817,38.115 -1.583,40.076C-9.025,42.048 -14.567,38.375 -16.786,29.999L-23.43,4.921L-30.527,6.801L-23.801,32.2C-20.546,44.476 -11.873,49.714 0,46.567" style="fill:white;fill-rule:nonzero;"/>
            </g>
            <g transform="matrix(1.314465,0,0,1.314465,163.887558,111.332052)">
                <path d="M0,1.807L-10.004,28.178L-1.933,26.04L5.535,5.607L22.075,19.679L30.402,17.473L8.463,-0.813L8.561,-1.078L18.1,-26.371L10.031,-24.232L2.964,-4.864L-12.7,-18.21L-21.026,-16.002L0.099,1.539L0,1.807Z" style="fill:white;fill-rule:nonzero;"/>
            </g>
            <g transform="matrix(1.314465,0,0,1.314465,141.947303,185.073254)">
                <path d="M0,13.692L1.396,20.99L-11.626,24.44L-15.39,10.233L-2.704,6.873L-4.267,0.976L-16.954,4.338L-20.451,-8.866L-7.811,-12.215L-5.735,-5.907L0.47,-7.551L-2.944,-19.412L-34.22,-11.125L-32.759,-5.603L-27.674,-6.95L-18.848,26.352L-23.493,27.584L-22.029,33.104L9.112,24.853L6.269,12.031L0,13.692Z" style="fill:white;fill-rule:nonzero;"/>
            </g>
            <g transform="matrix(1.314465,0,0,1.314465,185.231571,182.892426)">
                <path d="M0,-6.146L-5.402,-4.713L-9.166,-18.921L-3.26,-20.488C1.724,-21.806 5.134,-20.036 6.335,-15.495C7.509,-11.076 5.082,-7.493 0,-6.146M13.917,-18.312C12.406,-24.018 7.246,-29.176 -2.713,-26.539L-22.433,-21.312L-20.972,-15.793L-16.391,-17.008L-7.562,16.297L-12.147,17.511L-10.685,23.03L6.208,18.555L4.745,13.036L-0.343,14.384L-3.841,1.182L-0.131,0.199C1.781,-0.309 2.812,-0.03 5.54,2.704L14.287,11.347C18.024,14.967 19.926,14.922 23.675,13.927L27.947,12.795L26.48,7.276L24.666,7.757C23.348,8.107 22.095,7.976 20.25,6.201L13.344,-0.577C11.809,-2.073 9.964,-3.641 7.934,-3.949L7.309,-4.041L7.874,-4.323C13.353,-7.027 15.558,-12.125 13.917,-18.312" style="fill:white;fill-rule:nonzero;"/>
            </g>
        </g>
    </g>
</svg>
